<mxfile host="app.diagrams.net" agent="Mozilla/5.0 (Windows NT 10.0; Win64; x64) AppleWebKit/537.36 (KHTML, like Gecko) Chrome/137.0.0.0 Safari/537.36" version="27.1.6">
  <diagram name="Page-1" id="D8E8LAZQpIeisC3k4WEo">
    <mxGraphModel dx="1634" dy="2236" grid="1" gridSize="10" guides="1" tooltips="1" connect="1" arrows="1" fold="1" page="1" pageScale="1" pageWidth="850" pageHeight="1100" math="0" shadow="0">
      <root>
        <mxCell id="0" />
        <mxCell id="1" parent="0" />
        <mxCell id="WUyqU7kzN_VhUEg8MeZM-12" value="&lt;ol&gt;&lt;li&gt;&amp;nbsp;Start&lt;/li&gt;&lt;li&gt;&lt;span style=&quot;background-color: transparent; color: light-dark(rgb(0, 0, 0), rgb(255, 255, 255));&quot;&gt;Convert name to lowercase â†’ &quot;chris&quot;&lt;/span&gt;&lt;/li&gt;&lt;li&gt;Find ASCII value of each character&lt;/li&gt;&lt;li&gt;Convert ASCII to hexadecimal&lt;/li&gt;&lt;li&gt;Convert birth year (2000) to binary&lt;/li&gt;&lt;li&gt;Combine results into codename&lt;/li&gt;&lt;li&gt;End&lt;/li&gt;&lt;/ol&gt;" style="text;strokeColor=none;fillColor=none;html=1;whiteSpace=wrap;verticalAlign=middle;overflow=hidden;" vertex="1" parent="1">
          <mxGeometry x="-80" y="-20" width="260" height="180" as="geometry" />
        </mxCell>
        <mxCell id="WUyqU7kzN_VhUEg8MeZM-13" value="chris to ASCII:&lt;div&gt;99 104 114 105 115&lt;/div&gt;" style="rounded=1;whiteSpace=wrap;html=1;" vertex="1" parent="1">
          <mxGeometry x="230" width="240" height="60" as="geometry" />
        </mxCell>
        <mxCell id="WUyqU7kzN_VhUEg8MeZM-14" value="ASCII to Hex:&lt;div&gt;63 68 72 69 73&lt;/div&gt;" style="rounded=1;whiteSpace=wrap;html=1;" vertex="1" parent="1">
          <mxGeometry x="230" y="80" width="240" height="60" as="geometry" />
        </mxCell>
        <mxCell id="WUyqU7kzN_VhUEg8MeZM-15" value="Birth Year to binary(2000):&lt;div&gt;00110010 00110000 00110000 00110000&lt;/div&gt;" style="rounded=1;whiteSpace=wrap;html=1;" vertex="1" parent="1">
          <mxGeometry x="230" y="170" width="240" height="60" as="geometry" />
        </mxCell>
        <mxCell id="WUyqU7kzN_VhUEg8MeZM-16" value="Challenges:&lt;div&gt;The activity wasnt that challenging if I understood it correctly. It just takes some time making sure you are looking at the right values in the dictionary.&lt;/div&gt;" style="rounded=0;whiteSpace=wrap;html=1;" vertex="1" parent="1">
          <mxGeometry x="-20" y="160" width="180" height="140" as="geometry" />
        </mxCell>
      </root>
    </mxGraphModel>
  </diagram>
</mxfile>
